<svg version="1.0" xmlns="http://www.w3.org/2000/svg"
 width="1280.000000pt" height="1280.000000pt" viewBox="0 0 1280.000000 1280.000000"
 preserveAspectRatio="xMidYMid meet">
<metadata>
Created by potrace 1.15, written by Peter Selinger 2001-2017
</metadata>
<g transform="translate(0.000000,1280.000000) scale(0.100000,-0.100000)"
fill="#000000" stroke="none">
<path d="M1844 10031 c-117 -40 -210 -124 -267 -240 -31 -66 -32 -67 -37 -261
l-5 -195 -90 -6 c-137 -10 -240 -59 -320 -151 -47 -54 -91 -146 -105 -217 -15
-78 -14 -5766 1 -5847 25 -138 117 -257 247 -321 l76 -38 5056 0 5056 0 76 38
c130 64 222 183 247 321 15 81 16 5769 1 5847 -33 173 -173 320 -341 358 -29
7 -1210 11 -3511 11 l-3468 0 0 143 c0 179 -11 244 -54 333 -44 88 -121 163
-213 207 l-68 32 -1115 2 c-1041 2 -1118 1 -1166 -16z"/>
</g>
</svg>
